<svg xmlns="http://www.w3.org/2000/svg" width="24" height="24" viewBox="0 0 24 24" fill="none" stroke="currentColor" stroke-width="2" stroke-linecap="round" stroke-linejoin="round" class="icon icon-tabler icons-tabler-outline icon-tabler-brand-qq"><path stroke="none" d="M0 0h24v24H0z" fill="none"/><path d="M12 3c-3.866 0 -7 3.134 -7 7v1c-1 2 -1.5 3.5 -.5 5c.203 .304 .5 .5 .5 .5c-.5 1.5 -.5 2.5 .5 3.5c.667 .333 1.333 .333 2 0c0 0 1.5 1 4.5 1s4.5 -1 4.5 -1c.667 .333 1.333 .333 2 0c1 -1 1 -2 .5 -3.5c0 0 .297 -.196 .5 -.5c1 -1.5 .5 -3 -.5 -5v-1c0 -3.866 -3.134 -7 -7 -7z" /><path d="M9 10h.01" /><path d="M15 10h.01" /></svg>
